<svg xmlns="http://www.w3.org/2000/svg" width="600" height="600" viewBox="0 0 600 600" version="1.1">
	<path d="M 338.589 34.250 C 338.987 35.487, 339.301 41, 339.287 46.500 C 339.227 70.474, 328.992 85.214, 292 114.599 C 269.548 132.434, 260.122 141.951, 255.354 151.599 C 251.930 158.526, 251.762 159.329, 252.190 166.727 C 252.913 179.210, 258.482 189.392, 274.232 207.025 C 284.052 218.020, 299.946 232.678, 298.026 228.968 C 297.324 227.611, 292.119 219.525, 286.460 211 C 271.017 187.734, 267.975 178.454, 271.404 165.068 C 274.533 152.854, 283.764 140.780, 300 127.664 C 340.335 95.082, 354.531 64.964, 342.088 38.374 C 339.176 32.152, 337.144 29.756, 338.589 34.250 M 368 110.863 C 328.588 124.973, 304.089 145.434, 301.466 166.430 C 300.081 177.508, 305.195 191.696, 314.895 203.695 C 321.920 212.384, 324.143 217.145, 324.143 223.499 C 324.143 228.933, 321.035 237.896, 318.390 240.091 C 317.626 240.726, 317 241.661, 317 242.170 C 317 243.825, 325.355 237.383, 331.273 231.166 C 338.374 223.705, 341.993 216.359, 341.946 209.500 C 341.898 202.482, 340.376 198.916, 332.555 187.500 C 323.772 174.681, 321.676 169.952, 321.671 162.942 C 321.661 149.473, 335.608 134.865, 367.468 114.977 C 373.810 111.018, 379 107.603, 379 107.389 C 379 106.883, 379.977 106.574, 368 110.863 M 396.500 231.931 C 394.850 232.331, 392.150 233.425, 390.500 234.362 L 387.500 236.065 391 235.283 C 410.355 230.955, 426.337 246.426, 420.540 263.880 C 416.879 274.901, 404.308 287.568, 387.592 297.078 C 383.439 299.441, 380.180 301.513, 380.349 301.682 C 381.034 302.367, 399.025 295.700, 406.500 291.990 C 430.815 279.922, 441.423 261.609, 433.207 245.882 C 429.875 239.504, 423.889 234.638, 416.774 232.526 C 411.460 230.947, 401.738 230.663, 396.500 231.931 M 243.099 235.118 C 229.306 236.717, 205.431 244.213, 197.844 249.326 C 186.317 257.094, 203.206 262.774, 245.006 265.188 C 260.952 266.109, 271.185 266.114, 289.600 265.210 C 330.685 263.193, 356.777 258.981, 368 252.554 C 374.452 248.859, 374.470 248.836, 370.500 249.429 C 326.101 256.061, 275.366 259.210, 246.500 257.126 C 211.673 254.612, 210.197 248.303, 242 237.885 C 248.325 235.813, 252.825 234.149, 252 234.188 C 251.175 234.228, 247.169 234.646, 243.099 235.118 M 234.500 279.399 C 227.708 282.502, 223 286.637, 223 289.500 C 223 294.417, 232.277 299.077, 249.029 302.576 C 253.895 303.593, 264.519 304.326, 279.500 304.679 C 305.623 305.295, 321.926 303.890, 345 299.033 C 357.444 296.414, 365.120 294.217, 362.364 294.063 C 361.739 294.029, 358.582 292.233, 355.348 290.074 L 349.468 286.147 333.984 288.571 C 310.136 292.304, 289.230 293.421, 268.871 292.049 C 249.609 290.751, 242.683 289.677, 239.309 287.467 C 236.630 285.712, 236.329 282.403, 238.557 279.223 C 239.413 278, 239.975 277.026, 239.807 277.058 C 239.638 277.089, 237.250 278.143, 234.500 279.399 M 242.500 320.160 C 233.673 324.730, 231.930 328.686, 236.750 333.203 C 240.860 337.054, 247.196 339.902, 257.895 342.706 C 266.003 344.832, 270.494 345.304, 286.710 345.740 C 307.968 346.312, 319.693 345.261, 335 341.411 C 345.458 338.780, 356.025 335.108, 355.955 334.128 C 355.931 333.783, 351.768 331.567, 346.705 329.204 L 337.500 324.907 325 326.969 C 302.725 330.642, 272.267 330.600, 254.849 326.872 C 249.513 325.730, 246.503 323.010, 247.281 320.033 C 247.933 317.541, 247.538 317.551, 242.500 320.160 M 199.500 345.480 C 180.150 349.738, 163.481 358.861, 164.198 364.800 C 165.012 371.544, 178.875 374.881, 226 379.676 C 250.653 382.185, 314.807 382.206, 336.680 379.712 C 379.178 374.867, 411.010 366.160, 417.804 357.522 C 420.452 354.156, 420.548 352.691, 418.272 350.415 C 416.634 348.777, 416.508 348.862, 415.862 352.021 C 414.688 357.760, 408.080 361.161, 391 364.818 C 365.066 370.369, 336.533 372.461, 286.500 372.479 C 236.111 372.497, 215.398 370.764, 196.612 364.962 C 188.460 362.444, 185.063 359.850, 186.594 357.313 C 189.112 353.139, 200.660 348.210, 215 345.188 C 219.465 344.247, 219.446 344.240, 212.500 344.200 C 208.650 344.177, 202.800 344.753, 199.500 345.480 M 431.094 371.049 C 417.005 380.303, 384.818 388.286, 344.500 392.526 C 313.140 395.825, 254.856 395.505, 227.186 391.883 C 222.613 391.285, 218.674 390.992, 218.433 391.233 C 218.192 391.474, 221.141 392.431, 224.985 393.359 C 246.727 398.606, 289.840 401.037, 328.250 399.182 C 382.239 396.574, 415.373 389.269, 429.508 376.859 C 432.327 374.384, 437.093 367.706, 435.776 368.078 C 435.624 368.121, 433.517 369.458, 431.094 371.049 M 173.980 477.250 C 173.961 528.989, 173.385 540.421, 170.521 545.960 C 168.833 549.224, 163.987 554.396, 159.228 558.013 L 155.956 560.500 160.067 565.264 L 164.179 570.027 169.340 567.273 C 177.018 563.174, 186.285 553.565, 188.407 547.500 C 191.022 540.030, 191.896 520.969, 191.951 470.250 L 192 425 183 425 L 174 425 173.980 477.250 M 222.500 455.965 C 209.755 459.342, 209.651 459.413, 210.427 464.272 C 210.798 466.598, 211.417 468.815, 211.802 469.201 C 212.187 469.587, 215.846 469.024, 219.933 467.951 C 228.813 465.620, 241.567 465.374, 246.510 467.440 C 251.693 469.605, 253.992 474.153, 253.996 482.250 L 254 489 247.250 489.035 C 221.542 489.168, 206.603 498.511, 205.270 515.290 C 203.948 531.941, 212.591 540.561, 230.500 540.451 C 239.078 540.398, 245.194 538.378, 251.628 533.470 C 253.409 532.111, 255.289 531, 255.805 531 C 256.322 531, 257.032 532.800, 257.384 535 L 258.024 539 264.512 539 L 271 539 271 506.943 C 271 486.873, 270.587 473.246, 269.896 470.501 C 268.295 464.145, 263.078 458.547, 256.438 456.063 C 249.111 453.321, 232.656 453.274, 222.500 455.965 M 382.500 455.558 C 373.145 457.880, 367.842 460.145, 368.394 461.583 C 368.663 462.284, 369.184 464.465, 369.553 466.429 C 369.921 468.393, 370.326 470, 370.451 470 C 370.577 470, 374.199 469.100, 378.500 468 C 388.547 465.430, 401.126 465.317, 406 467.752 C 410.707 470.103, 412.996 474.960, 412.998 482.597 L 413 488.694 402.222 489.311 C 384.261 490.339, 373.357 494.970, 367.281 504.152 C 365.037 507.543, 364.453 509.700, 364.149 515.721 C 363.693 524.760, 365.640 530.599, 370.551 534.910 C 374.295 538.198, 382.311 541, 387.971 541 C 394.027 541, 403.219 538.104, 408.735 534.460 C 411.614 532.557, 414.399 531, 414.924 531 C 415.450 531, 416.019 532.688, 416.190 534.750 L 416.500 538.500 423.250 538.796 L 430 539.091 430 508.095 C 430 474.374, 429.435 469.281, 425.018 463.183 C 420.245 456.595, 414.628 454.558, 400.500 454.293 C 392.517 454.144, 386.491 454.567, 382.500 455.558 M 283.526 459.713 C 284.318 462.346, 290.097 481.150, 296.367 501.500 L 307.766 538.500 318.604 538.500 L 329.442 538.500 333.589 529 C 338.178 518.490, 343.552 503.043, 347.479 489.073 C 349.983 480.169, 355 458.091, 355 455.978 C 355 455.295, 351.908 455.024, 346.250 455.211 C 337.749 455.492, 337.492 455.571, 337.212 458 C 335.838 469.906, 326.369 508.233, 322.018 519.500 C 320.561 523.274, 319.821 522.090, 317.643 512.500 C 316.768 508.650, 312.546 494.250, 308.260 480.500 L 300.468 455.500 291.277 455.213 L 282.086 454.926 283.526 459.713 M 237.776 500.061 C 226.420 501.768, 222 505.970, 222 515.058 C 222 519.818, 222.457 521.390, 224.574 523.905 C 229.893 530.227, 239.297 530.189, 249.283 523.807 L 254.065 520.750 253.783 510.125 L 253.500 499.500 248.500 499.350 C 245.750 499.268, 240.924 499.587, 237.776 500.061 M 396.776 500.061 C 393.628 500.534, 389.730 501.605, 388.115 502.441 C 381.558 505.831, 378.793 512.849, 381.145 520.128 C 383.069 526.082, 386.716 528.475, 393.801 528.432 C 399.694 528.396, 403.699 526.861, 409.784 522.305 L 413.068 519.846 412.784 509.673 L 412.500 499.500 407.500 499.350 C 404.750 499.268, 399.924 499.587, 396.776 500.061" stroke="none" fill="#286fb9" fill-rule="evenodd"/>
</svg>