<svg xmlns="http://www.w3.org/2000/svg" width="2560" height="2040" viewBox="0 0 2560 2040" version="1.1">
	<path d="M 510.169 1.101 C 421.344 9.035, 343.878 65.646, 305.563 150.624 C 292.597 179.382, 285.036 209.990, 283.102 241.549 C 282.605 249.665, 282.653 269.092, 283.217 288 C 284.713 338.165, 283.367 410.132, 279.962 462 C 269.084 627.717, 234.583 758.166, 179.459 842 C 157.261 875.761, 129.428 903.794, 99.910 922.121 C 73.925 938.255, 43.513 949.163, 12.135 953.603 L 0 955.320 0 1020 L 0 1084.680 12.135 1086.397 C 137.486 1104.134, 219.461 1212.904, 259.413 1414.500 C 277.848 1507.526, 286.696 1632.858, 283.202 1751.500 C 282.592 1772.197, 282.549 1790.782, 283.091 1799 C 288.447 1880.164, 331.264 1954.894, 397.678 1998.991 C 424.756 2016.970, 451.541 2028.226, 483 2034.846 C 506.365 2039.763, 461.301 2039.500, 1281 2039.500 C 2002.886 2039.500, 2050.182 2039.396, 2060.749 2037.779 C 2104.563 2031.077, 2141.040 2015.911, 2175.407 1990.106 C 2186.838 1981.523, 2210.729 1958.211, 2219.519 1947.063 C 2242.447 1917.985, 2260.859 1881.124, 2269.491 1847.021 C 2277.146 1816.777, 2278.339 1800.285, 2276.943 1744 C 2274.714 1654.130, 2279.255 1559.928, 2289.513 1483.256 C 2305.860 1361.066, 2337.418 1262.620, 2381.275 1197 C 2409.260 1155.128, 2440.674 1126.500, 2479.500 1107.487 C 2502.181 1096.380, 2522.780 1090.049, 2548 1086.435 C 2554.325 1085.528, 2559.838 1084.583, 2560.250 1084.334 C 2560.662 1084.085, 2561 1054.632, 2561 1018.882 C 2561 974.720, 2560.671 954.085, 2559.974 954.516 C 2558.540 955.402, 2538.569 952.409, 2526 949.423 C 2501.916 943.702, 2474.184 931.673, 2454.327 918.334 C 2388.932 874.403, 2342.032 794, 2311.514 673.500 C 2285.727 571.683, 2273.409 437.252, 2276.925 296.034 C 2278.115 248.235, 2277.631 234.985, 2273.929 214 C 2269.272 187.596, 2262.475 166.794, 2250.568 142.500 C 2224.710 89.741, 2185.455 49.971, 2134.500 24.909 C 2111.369 13.532, 2090.555 7.061, 2061.500 2.214 C 2052.229 0.668, 1995.645 0.536, 1285.500 0.407 C 864.200 0.331, 515.301 0.643, 510.169 1.101 M 887 1020.011 L 887 1565.069 1131.750 1564.714 C 1312.925 1564.452, 1379.487 1564.048, 1388 1563.160 C 1449.554 1556.733, 1488.688 1548.052, 1529.334 1531.808 C 1636.810 1488.857, 1700.495 1408.798, 1714.528 1299 C 1716.767 1281.483, 1717.544 1247.531, 1716.083 1231.055 C 1708.065 1140.612, 1661.740 1068.713, 1582.995 1024.494 C 1552.549 1007.398, 1506.771 992.729, 1470.750 988.527 C 1467.588 988.158, 1465.002 987.551, 1465.005 987.178 C 1465.007 986.805, 1471.192 985.004, 1478.749 983.175 C 1496.253 978.939, 1507.958 974.639, 1525.576 965.973 C 1598.175 930.261, 1649.933 857.950, 1660.479 777.500 C 1662.453 762.445, 1662.457 731.393, 1660.488 714.558 C 1649.387 619.665, 1593.545 546.504, 1501.732 506.567 C 1469.110 492.377, 1433.848 483.307, 1388 477.312 C 1375.475 475.675, 1356.888 475.526, 1130.750 475.250 L 887 474.953 887 1020.011 M 1065 777.012 L 1065 936.101 1180.250 935.718 C 1303.958 935.308, 1301.231 935.412, 1332 929.944 C 1364.519 924.166, 1396.438 912.517, 1418.035 898.546 C 1465.290 867.977, 1488.274 818.995, 1483.934 758.105 C 1480.710 712.880, 1463.495 679.253, 1431.122 654.946 C 1407.874 637.491, 1379.796 627.046, 1338 620.305 C 1328.603 618.790, 1313.709 618.576, 1196.250 618.268 L 1065 617.923 1065 777.012 M 0.472 1020 C 0.472 1056.025, 0.597 1070.763, 0.750 1052.750 C 0.902 1034.737, 0.902 1005.263, 0.750 987.250 C 0.597 969.237, 0.472 983.975, 0.472 1020 M 1065 1245.989 L 1065 1422.105 1201.250 1421.708 C 1347.248 1421.284, 1344.162 1421.384, 1375.955 1416.048 C 1444.527 1404.539, 1493.488 1374.042, 1516.707 1328.375 C 1529.461 1303.290, 1533.944 1284.021, 1534.726 1250.928 C 1535.383 1223.085, 1533.445 1207.383, 1526.834 1187 C 1507.061 1126.040, 1454.165 1089.055, 1367.500 1075.595 C 1336.457 1070.774, 1333.950 1070.696, 1195.750 1070.273 L 1065 1069.873 1065 1245.989" stroke="none" fill="#8200f3" fill-rule="evenodd"/>
</svg>