<svg xmlns="http://www.w3.org/2000/svg" width="320" height="320" viewBox="0 0 320 320" version="1.1">
	<path d="M 215.207 99.750 C 207.549 109.513, 195.538 125.375, 188.517 135 C 181.497 144.625, 175.440 152.846, 175.058 153.268 C 174.676 153.691, 168.581 145.928, 161.513 136.018 C 150.874 121.101, 148.243 118, 146.224 118 C 144.607 118, 143.958 118.448, 144.296 119.329 C 144.577 120.061, 150.714 128.923, 157.935 139.024 C 165.157 149.125, 170.872 157.892, 170.636 158.506 C 170.401 159.120, 164.046 168.100, 156.515 178.461 C 148.984 188.823, 142.589 197.908, 142.304 198.650 C 141.955 199.561, 142.597 200, 144.279 200 C 146.369 200, 148.983 196.929, 160.448 181 C 167.970 170.550, 174.280 162, 174.472 162 C 174.664 162, 180.965 170.550, 188.474 181 C 200.049 197.107, 202.515 200, 204.671 200 C 206.378 200, 207.046 199.562, 206.703 198.668 C 206.421 197.935, 199.818 188.490, 192.029 177.680 C 183.070 165.248, 178.142 157.562, 178.618 156.763 C 179.849 154.694, 222.999 91.904, 226.731 86.750 C 228.622 84.138, 229.937 82, 229.651 82 C 229.365 82, 222.866 89.987, 215.207 99.750 M 16 159 L 16 200 18.488 200 L 20.976 200 21.238 162.408 L 21.500 124.815 45.971 160.658 C 67.602 192.340, 100.437 238, 101.589 238 C 101.820 238, 84.005 211, 62 178 C 23.940 120.922, 21.846 118, 18.996 118 L 16 118 16 159 M 84 159.016 L 84 200.032 111.250 199.766 C 137.745 199.507, 138.500 199.445, 138.500 197.500 C 138.500 195.561, 137.744 195.492, 113.750 195.233 L 89 194.965 89 177.483 L 89 160 112 160 L 135 160 135 157.500 L 135 155 112 155 L 89 155 89 139 L 89 123 113.500 123 L 138 123 138 120.500 L 138 118 111 118 L 84 118 84 159.016 M 210 120.486 L 210 123 223.988 123 L 237.976 123 238.238 161.250 L 238.500 199.500 240.750 199.820 L 243 200.139 243 161.597 L 243 123.055 257.250 122.777 C 270.741 122.515, 271.500 122.393, 271.500 120.500 C 271.500 118.549, 270.745 118.494, 240.750 118.236 L 210 117.971 210 120.486 M 284.492 177.250 C 284.248 177.938, 283.924 181.389, 283.774 184.921 C 283.484 191.728, 282.347 193.205, 279.552 190.409 C 278.432 189.289, 277.538 189.062, 276.871 189.729 C 275.342 191.258, 278.656 194, 282.036 194 C 283.873 194, 285.308 193.294, 285.965 192.066 C 287.325 189.524, 287.328 176, 285.969 176 C 285.401 176, 284.737 176.563, 284.492 177.250 M 292.655 177.829 C 289.471 181.346, 291.186 184.485, 297.390 186.499 C 301.397 187.799, 302.045 190.700, 298.526 191.583 C 296.779 192.021, 295.330 191.703, 294.131 190.619 C 291.914 188.612, 291 188.567, 291 190.465 C 291 194.079, 299.554 195.255, 302.464 192.040 C 305.349 188.852, 303.811 185.447, 298.764 183.847 C 294.039 182.348, 292.614 179.575, 296.015 178.495 C 297.390 178.059, 298.805 178.419, 300.014 179.512 C 302.857 182.086, 304.863 180.863, 302.188 178.188 C 299.517 175.517, 294.904 175.343, 292.655 177.829 M 270.639 190.694 C 269.444 191.889, 269.994 194, 271.500 194 C 272.325 194, 273 193.352, 273 192.559 C 273 190.888, 271.573 189.761, 270.639 190.694" stroke="none" fill="#ffffff" fill-rule="evenodd"/>
</svg>