<svg xmlns="http://www.w3.org/2000/svg" width="225" height="224" viewBox="0 0 225 224" version="1.1">
	<path d="M 136.500 1.138 C 133.750 1.708, 124.975 2.256, 117 2.357 C 104.032 2.520, 101.866 2.804, 96.500 5.043 L 90.500 7.547 84 5.631 C 79.070 4.178, 74.118 3.690, 63.500 3.608 C 51.040 3.512, 48.871 3.754, 43.779 5.811 C 33.562 9.938, 25.916 19.533, 23.007 31.877 C 17.954 53.318, 32.509 110.780, 47.234 127.524 C 53.525 134.678, 62.180 136.635, 68.765 132.393 C 70.834 131.060, 71.441 131.175, 75.765 133.717 C 79.941 136.171, 81.504 136.500, 89 136.500 C 93.675 136.500, 98.737 136.114, 100.250 135.642 L 103 134.783 103.020 141.142 C 103.083 161.550, 108.522 175.813, 117.702 179.649 C 124.754 182.595, 139.357 180.016, 146.508 174.561 C 153.612 169.143, 158.113 156.900, 159.490 139.250 L 160.212 130 164.557 130 C 178.556 130, 194.511 121.780, 196.590 113.497 C 197.402 110.264, 195.046 105.789, 191.686 104.178 C 189.393 103.079, 187.639 103.062, 181.939 104.080 C 178.117 104.763, 174.715 105.048, 174.379 104.713 C 174.044 104.378, 175.352 101.268, 177.286 97.802 C 189.911 75.174, 198.083 43.349, 195.036 28.674 C 194.016 23.762, 192.958 21.959, 187.950 16.606 C 181.840 10.074, 173.813 5.065, 165.297 2.471 C 159.049 0.568, 142.862 -0.182, 136.500 1.138 M 139 4.947 C 135.975 5.374, 131.814 6.200, 129.753 6.781 C 127.145 7.516, 123.890 7.523, 119.046 6.804 C 110.957 5.604, 102.125 6.793, 95.572 9.965 L 91.398 11.986 81.571 9.493 C 59.197 3.817, 40.639 7.768, 32.722 19.891 C 24.405 32.629, 23.978 47.615, 31.110 76.451 C 38.596 106.717, 47.859 125.715, 56.784 129.108 C 62.542 131.297, 64.070 130.466, 74.501 119.463 L 84.502 108.914 89.721 110.249 L 94.940 111.585 92.466 114.254 C 91.105 115.721, 88.081 117.421, 85.746 118.031 C 74.505 120.965, 71.488 125.034, 77.323 129.392 C 79.537 131.046, 81.907 131.570, 88.323 131.825 C 95.535 132.112, 97.061 131.850, 101.250 129.604 L 106 127.056 106.016 133.278 C 106.025 136.700, 106.455 144.603, 106.971 150.840 C 107.768 160.478, 108.344 162.955, 110.809 167.340 C 114.378 173.690, 119.560 176.960, 126.091 176.984 C 131.913 177.004, 139.118 174.850, 143.976 171.635 C 150.682 167.197, 151.875 163.096, 156.522 128.500 L 157.059 124.500 166.326 124.467 C 174.381 124.439, 176.331 124.073, 181.250 121.666 C 187.678 118.521, 192.247 113.734, 191.801 110.612 C 191.512 108.583, 191.060 108.513, 180.315 108.836 C 174.164 109.021, 168.485 108.796, 167.697 108.336 C 166.537 107.659, 167.188 105.895, 171.111 99.078 C 182.038 80.091, 189.689 57.364, 190.689 40.926 C 191.392 29.369, 190.294 25.359, 184.791 19.389 C 174.384 8.099, 156.531 2.468, 139 4.947 M 143 9.733 C 135.685 10.271, 135.033 10.922, 139.500 13.225 C 146.120 16.637, 158.086 29.535, 162.486 38 C 165.734 44.249, 166.363 46.417, 166.261 51 C 166.193 54.025, 165.994 65.275, 165.819 76 C 165.560 91.819, 165.184 96.113, 163.827 98.750 C 160.554 105.106, 163.671 101.878, 167.689 94.750 C 181.224 70.741, 189.288 38.805, 184.630 27.657 C 181.603 20.413, 167.511 11.627, 157.112 10.502 C 154.025 10.168, 150.600 9.784, 149.500 9.649 C 148.400 9.513, 145.475 9.551, 143 9.733 M 105.920 12.022 C 103.402 12.442, 99.556 13.696, 97.375 14.808 C 92.341 17.377, 85.375 24.898, 82.947 30.387 C 80.607 35.677, 78 45.546, 78 49.114 L 78 51.808 83.011 49.904 C 92.629 46.249, 102.381 47.969, 105.426 53.857 C 107.755 58.360, 109.279 69.520, 108.772 78.350 C 108.412 84.626, 107.465 88.622, 104.652 95.728 C 102.644 100.804, 101 105.324, 101 105.772 C 101 106.220, 102.426 107.017, 104.169 107.543 C 105.911 108.069, 108.274 109.775, 109.419 111.334 C 111.218 113.784, 111.463 115.364, 111.226 123.009 C 110.802 136.690, 112.656 160.433, 114.413 163.832 C 115.246 165.443, 117.393 167.994, 119.182 169.500 C 122.128 171.978, 122.984 172.189, 128.204 171.715 C 136.327 170.979, 142.595 167.715, 145.022 162.958 C 147.156 158.774, 149.247 146.897, 151.001 129 C 152.517 113.531, 153.453 110.303, 157.058 108.111 C 159.970 106.340, 159.983 106.294, 158.042 104.538 C 154.718 101.530, 141.167 73.094, 139.848 66.359 C 137.479 54.269, 143.334 47, 155.441 47 L 161.109 47 157.305 39.756 C 147.004 20.142, 125.812 8.703, 105.920 12.022 M 49.183 13.902 C 32.225 19.759, 27.458 37.491, 34.504 68.500 C 42.751 104.794, 53.700 127.134, 61.955 124.514 C 63.084 124.156, 67.586 119.813, 71.960 114.862 L 79.913 105.862 76.946 101.767 C 71.678 94.494, 71.197 91.007, 72.012 66 C 72.677 45.627, 72.993 42.738, 75.357 35.439 C 76.793 31.005, 79.737 24.851, 81.900 21.764 C 86.394 15.348, 86.695 15.752, 75.685 13.435 C 66.345 11.469, 55.683 11.657, 49.183 13.902 M 149.465 52.952 C 145.614 54.512, 144.743 56.627, 145.173 63.369 C 145.514 68.726, 146.607 71.861, 151.978 82.876 C 155.497 90.094, 158.742 96, 159.188 96 C 160.264 96, 160.325 94.786, 160.419 71.750 L 160.500 52.001 156 52.064 C 153.525 52.098, 150.584 52.498, 149.465 52.952 M 88 53.640 C 87.175 53.906, 84.475 55.021, 82 56.119 L 77.500 58.116 77.265 74.628 C 77.004 92.989, 77.787 96.119, 83.931 101.288 C 87.431 104.234, 93.845 106.607, 94.929 105.358 C 95.339 104.886, 97.429 100, 99.574 94.500 C 103.214 85.168, 103.470 83.832, 103.405 74.500 C 103.324 62.969, 101.867 56.720, 98.749 54.537 C 96.653 53.069, 91.192 52.614, 88 53.640 M 149.479 55.392 C 147.862 56.574, 147.776 57.025, 148.910 58.392 C 149.644 59.276, 151.020 60, 151.967 60 C 154.147 60, 157.411 56.474, 156.539 55.063 C 155.612 53.563, 151.734 53.743, 149.479 55.392 M 91.026 56.468 C 88.982 58.932, 92.778 62.523, 96.452 61.601 C 99.295 60.888, 100.829 58.429, 99.352 56.952 C 97.458 55.058, 92.439 54.767, 91.026 56.468 M 96.951 116.903 C 93.640 120.550, 91.347 122.100, 88 122.953 C 80.527 124.856, 80.324 124.961, 82.028 126.038 C 84.445 127.567, 94.803 127.150, 98.300 125.383 C 103.065 122.975, 106 119.932, 106 117.397 C 106 115.247, 103.672 112, 102.130 112 C 101.730 112, 99.399 114.206, 96.951 116.903 M 159.117 113.359 C 158.418 114.201, 157.994 115.927, 158.173 117.195 C 158.450 119.150, 159.183 119.551, 163 119.836 C 168.855 120.273, 176.573 118.535, 181.221 115.732 L 184.923 113.500 175.711 113.482 C 170.645 113.471, 165.125 113.095, 163.444 112.645 C 161.165 112.036, 160.065 112.217, 159.117 113.359 M 1 198 C 1 211.556, 1.229 214, 2.500 214 C 3.679 214, 4 212.611, 4 207.500 L 4 201 8.050 201 C 17.450 201, 22.425 194.417, 18.890 186.657 C 17.369 183.320, 13.985 182, 6.953 182 L 1 182 1 198 M 152.455 184.455 C 147.674 189.235, 149.546 194.729, 157.286 198.632 C 163.065 201.547, 163.962 202.491, 163.985 205.679 C 164.012 209.598, 161.275 211.200, 155.181 210.832 C 151.720 210.624, 149.530 210.918, 149.294 211.623 C 148.823 213.031, 152.209 213.969, 157.827 213.986 C 165.259 214.010, 170.191 206.962, 166.962 200.930 C 166.392 199.863, 163.298 197.665, 160.088 196.045 C 156.878 194.424, 153.960 192.338, 153.603 191.408 C 151.864 186.877, 156.976 183.251, 162.750 184.921 C 165.619 185.750, 166 185.634, 166 183.930 C 166 182.255, 165.266 182, 160.455 182 C 155.900 182, 154.470 182.439, 152.455 184.455 M 179.299 183.960 C 174.852 186.671, 172.602 191.387, 172.602 198 C 172.602 204.121, 174.735 209.125, 178.354 211.496 C 180.675 213.017, 194.847 217.184, 198.399 217.390 C 199.443 217.450, 200.475 216.992, 200.692 216.370 C 200.929 215.692, 199.219 214.960, 196.413 214.539 L 191.740 213.839 195.335 210.875 C 203.253 204.349, 202.526 187.909, 194.128 183.566 C 189.954 181.408, 183.189 181.587, 179.299 183.960 M 207 198 L 207 214 215.500 214 C 222.389 214, 224 213.716, 224 212.500 C 224 211.321, 222.611 211, 217.500 211 L 211 211 211 196.500 C 211 182.667, 210.908 182, 209 182 C 207.083 182, 207 182.667, 207 198 M 183.388 184.980 C 175.813 188.041, 173.705 200.930, 179.629 207.971 C 184.307 213.531, 193.324 211.538, 196.061 204.339 C 198.609 197.637, 196.115 188.145, 191.128 185.566 C 187.762 183.826, 186.485 183.729, 183.388 184.980 M 4.202 191.250 L 4.500 197.500 8.193 197.807 C 12.699 198.182, 16 195.369, 16 191.155 C 16 187.195, 13.192 185, 8.124 185 L 3.905 185 4.202 191.250 M 71 187.594 C 71 189.346, 70.351 190.357, 69 190.710 C 67.900 190.998, 67 191.856, 67 192.617 C 67 193.377, 67.900 194, 69 194 C 70.848 194, 71 194.667, 71 202.800 C 71 208.311, 71.448 212.048, 72.200 212.800 C 73.983 214.583, 80 214.352, 80 212.500 C 80 211.675, 79.116 211, 78.035 211 C 75.167 211, 74 207.982, 74 200.566 L 74 194 77 194 C 79 194, 80 193.500, 80 192.500 C 80 191.500, 79 191, 77 191 C 74.333 191, 74 190.667, 74 188 C 74 186, 73.500 185, 72.500 185 C 71.552 185, 71 185.955, 71 187.594 M 55.500 190.799 C 52.324 191.446, 50 194.080, 50 197.033 C 50 199.991, 51.284 201.395, 56.262 203.882 C 58.618 205.059, 59.500 206.181, 59.500 208 C 59.500 210.296, 59.133 210.500, 55 210.500 C 50.659 210.500, 48.596 211.537, 49.625 213.202 C 49.896 213.641, 52.341 214, 55.059 214 C 60.687 214, 64 211.618, 64 207.571 C 64 204.626, 61.930 202.416, 57.400 200.523 C 54.793 199.433, 54 198.507, 54 196.551 C 54 193.878, 54.934 193.493, 60.360 193.928 C 62.302 194.084, 63.083 193.748, 62.794 192.883 C 62.289 191.366, 58.304 190.227, 55.500 190.799 M 119.335 191.054 C 118.145 191.504, 116.696 192.689, 116.116 193.686 C 115.150 195.347, 115.058 195.310, 115.030 193.250 C 115.009 191.677, 114.398 191, 113 191 C 111.116 191, 111 191.667, 111 202.500 C 111 213.119, 111.145 214, 112.894 214 C 114.563 214, 114.831 213.060, 115.147 206.102 C 115.528 197.702, 117.366 194, 121.155 194 C 122.170 194, 123 193.352, 123 192.559 C 123 190.557, 121.872 190.094, 119.335 191.054 M 132.212 191.225 C 124.027 193.346, 122.402 208.934, 129.945 212.970 C 132.022 214.082, 139.884 214.365, 142.355 213.417 C 145.645 212.155, 142.907 210.505, 138.080 210.840 C 134.154 211.113, 132.766 210.766, 131.090 209.090 C 129.941 207.941, 129 206.100, 129 205 C 129 203.164, 129.667 203, 137.131 203 L 145.262 203 144.670 199.357 C 143.586 192.672, 138.766 189.526, 132.212 191.225 M 27.750 192.080 C 21.541 195.696, 21.671 209.613, 27.945 212.970 C 32.980 215.665, 41.661 213.233, 43.805 208.528 C 46.351 202.941, 44.399 194.354, 40.055 192.030 C 37.603 190.717, 30.037 190.748, 27.750 192.080 M 86.629 194.029 C 80.538 201.268, 83.338 212.035, 91.720 213.607 C 94.408 214.111, 95.841 213.754, 98.237 211.983 L 101.308 209.712 100.685 213.606 C 99.672 219.929, 94.925 222.443, 88.565 220.025 C 86.365 219.188, 86 219.322, 86 220.963 C 86 223.532, 93.660 224.798, 98.091 222.962 C 103.118 220.880, 103.802 218.773, 104.167 204.250 C 104.471 192.170, 104.345 190.999, 102.750 191 C 101.787 191, 101 191.745, 101 192.655 C 101 194.195, 100.873 194.195, 99.171 192.655 C 98.098 191.684, 95.656 191, 93.260 191 C 89.943 191, 88.700 191.568, 86.629 194.029 M 31.315 194.006 C 25.379 196.400, 25.652 209.121, 31.671 210.632 C 37.076 211.989, 41 208.527, 41 202.403 C 41 199.550, 38.395 194, 37.056 194 C 36.565 194, 35.564 193.803, 34.832 193.563 C 34.099 193.322, 32.517 193.522, 31.315 194.006 M 131.174 195.314 C 127.630 199.087, 128.376 200, 135 200 C 141.635 200, 142.686 198.686, 139 195 C 136.370 192.370, 133.845 192.472, 131.174 195.314 M 89.789 195.750 C 85.834 200.301, 87.448 209.321, 92.441 210.575 C 99.337 212.305, 103.778 201.528, 98.755 195.250 C 97.276 193.401, 91.553 193.720, 89.789 195.750" stroke="none" fill="#336791" fill-rule="evenodd"/>
</svg>